# File created by Blade
# Date/Time:  Mon Sep 22 15:39:46 2014
# Frame Rate: 120.000 fps
#------------------------------------------------------
:FULLY-SPECIFIED
:DEGREES
4180
root 0.451606 36.944240 3.454549 2.601773 -24.217830 -2.283375
RightUpLeg 6.449027 9.871486 1.656333
RightLeg -6.196541 -0.000000 0.000000
RightFoot -9.780883 -9.759793 14.996648
RightToeBase 13.933121 -0.000000 -0.000000
LeftUpLeg 11.808408 17.352662 7.310648
LeftLeg -4.205126 -0.000000 0.000000
LeftFoot -13.451768 18.390916 -21.824468
LeftToeBase 6.107034 -0.000000 -0.000000
Spine 6.011568 -35.101559 -12.065282
RightShoulder -10.468443 -13.866615 -22.791890
RightArm -195.837977 104.901560 -146.564112
RightForeArm 82.762525 -0.000000 102.152441
RightHand 20.797506 -0.000000 -13.847105
RightHandThumb1 -24.326973 -0.000000 -32.862282
LeftShoulder -19.277488 45.830439 -3.905217
LeftArm 22.812424 7.642187 -65.168947
LeftForeArm 12.140012 -0.000000 40.734088
LeftHand -14.968882 -0.000000 -11.515771
LeftHandThumb1 -26.253704 0.000000 33.147579
Head 6.958693 -39.695097 9.573004
4181
root 0.471628 36.947148 3.453051 2.604356 -23.857535 -2.198895
RightUpLeg 6.417669 9.713786 1.573229
RightLeg -6.169789 -0.000000 0.000000
RightFoot -9.865638 -9.906541 15.038333
RightToeBase 13.933552 -0.000000 -0.000000
LeftUpLeg 11.673722 17.247388 7.221083
LeftLeg -4.200459 -0.000000 0.000000
LeftFoot -13.327497 18.198951 -21.719044
LeftToeBase 6.082556 -0.000000 -0.000000
Spine 6.081351 -35.184606 -12.050135
RightShoulder -10.611065 -14.011942 -22.633371
RightArm -196.209865 105.225623 -147.089981
RightForeArm 82.398574 -0.000000 102.130578
RightHand 20.868486 -0.000000 -13.620197
RightHandThumb1 -24.326973 -0.000000 -32.862282
LeftShoulder -19.312645 45.840087 -3.965328
LeftArm 22.795834 7.548636 -65.281205
LeftForeArm 11.878588 -0.000000 40.896078
LeftHand -14.970635 -0.000000 -11.421713
LeftHandThumb1 -26.253704 0.000000 33.147579
Head 6.716009 -39.656589 9.705495
4182
root 0.492514 36.950029 3.450022 2.608340 -23.518356 -2.114223
RightUpLeg 6.381187 9.603896 1.491826
RightLeg -6.145455 -0.000000 0.000000
RightFoot -9.955300 -10.106830 15.076634
RightToeBase 13.862572 -0.000000 -0.000000
LeftUpLeg 11.541104 17.139440 7.125357
LeftLeg -4.202213 -0.000000 0.000000
LeftFoot -13.209381 18.037816 -21.617587
LeftToeBase 6.080449 -0.000000 -0.000000
Spine 6.120496 -35.257573 -12.032065
RightShoulder -10.699725 -14.183384 -22.489360
RightArm -196.656691 105.659307 -147.720365
RightForeArm 82.032479 -0.000000 102.127766
RightHand 20.857057 -0.000000 -13.601050
RightHandThumb1 -24.326973 -0.000000 -32.862282
LeftShoulder -19.301089 45.864889 -3.987386
LeftArm 22.752849 7.466147 -65.411398
LeftForeArm 11.680927 0.000000 41.041849
LeftHand -14.901695 -0.000000 -11.317441
LeftHandThumb1 -26.253704 0.000000 33.147579
Head 6.429801 -39.557310 9.901417
4183
root 0.508758 36.952381 3.450869 2.580770 -23.172627 -2.040092
RightUpLeg 6.391542 9.440539 1.427694
RightLeg -6.122505 -0.000000 0.000000
RightFoot -10.042186 -10.248600 15.102529
RightToeBase 13.899189 -0.000000 -0.000000
LeftUpLeg 11.456636 17.032726 7.060423
LeftLeg -4.207907 -0.000000 0.000000
LeftFoot -13.103803 17.852557 -21.546878
LeftToeBase 6.130285 -0.000000 -0.000000
Spine 6.218627 -35.393045 -12.039080
RightShoulder -10.769908 -14.324668 -22.343711
RightArm -196.933318 106.213293 -148.244285
RightForeArm 81.828265 -0.000000 102.137553
RightHand 20.840479 -0.000000 -13.632557
RightHandThumb1 -24.326973 -0.000000 -32.862282
LeftShoulder -19.340119 45.852530 -4.033316
LeftArm 22.677723 7.407953 -65.555301
LeftForeArm 11.563875 -0.000000 41.146465
LeftHand -15.123543 -0.000000 -10.853444
LeftHandThumb1 -26.253704 0.000000 33.147579
Head 6.177642 -39.447310 10.073057
